HIERARCHY
ROOT hip
{
	OFFSET 0.000000 0.000000 0.000000 
	CHANNELS 6 Xposition Yposition Zposition Xrotation Zrotation Yrotation
	JOINT abdomen
	{
		OFFSET 0.000000 3.402643 0.000000 
		CHANNELS 3 Xrotation Zrotation Yrotation
		JOINT chest
		{
			OFFSET 0.000000 8.438565 -0.680529 
			CHANNELS 3 Xrotation Zrotation Yrotation
			JOINT neck
			{
				OFFSET 0.000000 9.885400 -0.272212 
				CHANNELS 3 Xrotation Zrotation Yrotation
				JOINT head
				{
					OFFSET 0.000000 3.130431 0.000000 
					CHANNELS 3 Xrotation Zrotation Yrotation
					End Site
					{
						OFFSET 0.000000 3.039250 0.000000 
					}
				}
			}
			JOINT lCollar
			{
				OFFSET 3.238290 6.669187 -0.816635 
				CHANNELS 3 Yrotation Zrotation Xrotation
				JOINT lShldr
				{
					OFFSET 2.515050 0.000000 0.000000 
					CHANNELS 3 Zrotation Yrotation Xrotation
					JOINT lForeArm
					{
						OFFSET 11.517700 0.000000 0.000000 
						CHANNELS 3 Yrotation Zrotation Xrotation
						JOINT lHand
						{
							OFFSET 9.026700 0.000000 0.000000 
							CHANNELS 3 Zrotation Yrotation Xrotation
							End Site
							{
								OFFSET 4.028470 0.000000 0.000000 
							}
						}
					}
				}
			}
			JOINT rCollar
			{
				OFFSET -3.238290 6.669187 -0.816635 
				CHANNELS 3 Yrotation Zrotation Xrotation
				JOINT rShldr
				{
					OFFSET -2.515050 0.000000 0.000000 
					CHANNELS 3 Zrotation Yrotation Xrotation
					JOINT rForeArm
					{
						OFFSET -11.517700 0.000000 0.000000 
						CHANNELS 3 Yrotation Zrotation Xrotation
						JOINT rHand
						{
							OFFSET -9.026700 0.000000 0.000000 
							CHANNELS 3 Zrotation Yrotation Xrotation
							End Site
							{
								OFFSET -4.028470 0.000000 0.000000 
							}
						}
					}
				}
			}
		}
	}
	JOINT lThigh
	{
		OFFSET 4.983750 -1.633274 1.361059 
		CHANNELS 3 Xrotation Zrotation Yrotation
		JOINT lShin
		{
			OFFSET -2.041588 -20.007561 0.000000 
			CHANNELS 3 Xrotation Zrotation Yrotation
			JOINT lFoot
			{
				OFFSET 0.000000 -19.190928 -1.224953 
				CHANNELS 3 Xrotation Yrotation Zrotation
				End Site
				{
					OFFSET 0.000000 -2.449906 4.627600 
				}
			}
		}
	}
	JOINT rThigh
	{
		OFFSET -4.983750 -1.633274 1.361059 
		CHANNELS 3 Xrotation Zrotation Yrotation
		JOINT rShin
		{
			OFFSET 2.041588 -20.007561 0.000000 
			CHANNELS 3 Xrotation Zrotation Yrotation
			JOINT rFoot
			{
				OFFSET 0.000000 -19.190928 -1.224953 
				CHANNELS 3 Xrotation Yrotation Zrotation
				End Site
				{
					OFFSET 0.000000 -2.449906 4.627600 
				}
			}
		}
	}
}
MOTION
Frames: 18
Frame Time: 0.052666
0.000000 38.882393 0.000000 0.752417 4.131450 -1.039200 3.007431 -3.793573 -0.692365 1.288899 -1.625817 -0.296728 12.608900 -3.484910 6.098400 -25.283899 2.014660 0.031177 9.611105 -10.416529 -2.250526 -29.018799 -5.335110 -76.804298 -57.286999 -7.224010 5.439990 -15.088100 14.741100 -21.477600 1.436332 13.106064 5.770433 31.918400 10.513600 -61.433399 65.424400 -22.436800 40.430199 34.105701 -2.836880 -48.385799 -11.338240 -2.763109 13.391104 20.745634 -3.585337 -8.017655 -13.359042 6.668340 5.813027 -14.849922 -5.320078 -12.671111 29.025930 2.343178 1.393281 -15.844690 -4.292418 -2.162518 
0.030541 38.847401 -0.173008 1.125080 4.295970 -0.481490 3.551786 -4.160443 -0.938861 1.522194 -1.783047 -0.402369 11.663900 -2.993050 5.930500 -25.804199 2.488050 -0.163409 8.833219 -9.962492 -2.286098 -28.972698 -5.723420 -77.539803 -57.547298 -6.996600 5.929010 -15.212500 15.134200 -21.605301 0.742478 13.398571 4.444844 32.087200 10.372600 -60.747898 65.440399 -22.229200 41.026402 33.761101 -2.566120 -47.920898 -11.525004 -3.056884 14.222908 19.818018 -3.294909 -7.373434 -13.313703 5.138958 5.037610 -15.788372 -5.652667 -13.784320 29.683617 1.806282 2.449187 -16.107357 -4.170201 -2.273407 
-0.018705 38.826996 -0.522929 1.256570 4.724220 0.730229 5.095867 -4.594380 -1.524166 2.183943 -1.969020 -0.653214 9.461010 -2.268260 5.422340 -25.555000 2.269900 -0.204200 7.692725 -9.434982 -3.250727 -27.869701 -5.356910 -77.164902 -57.036900 -6.806340 3.648070 -12.403200 16.789700 -21.517300 0.420217 12.851620 3.170405 31.758701 9.585270 -60.600498 64.328796 -22.743601 40.608002 34.171299 -2.284010 -47.817402 -12.125222 -3.534891 12.788312 19.620298 -3.440366 -6.983538 -12.589470 5.226034 4.447206 -16.966688 -6.275404 -14.432318 31.127863 1.733504 1.618848 -16.565216 -4.381016 -1.793521 
-0.184254 38.828033 -0.954495 0.930236 5.290490 2.030170 7.163730 -4.780811 -2.024442 3.070170 -2.048919 -0.867618 6.698670 -2.138390 4.754300 -25.013399 1.994960 -0.263688 6.551078 -8.887524 -3.982010 -25.690300 -5.611800 -77.412201 -55.211899 -6.032900 3.751220 -13.919500 17.431999 -21.981701 0.166541 10.449237 2.592072 30.131901 7.369520 -59.601002 60.313599 -24.662300 38.566399 34.973099 -1.462050 -47.418800 -12.317368 -3.886969 13.926950 19.466745 -3.076935 -10.370923 -11.698989 6.244669 4.575339 -18.373884 -7.291343 -15.770473 33.927727 1.918792 -1.666081 -16.789865 -5.531722 -1.650944 
-0.391476 38.855595 -1.312123 0.346519 5.707900 3.195960 9.019080 -3.917669 -2.061080 3.865320 -1.679001 -0.883320 4.835640 -3.546680 3.774340 -25.408001 1.978190 -0.580087 5.732383 -9.218313 -4.124311 -22.394100 -7.061450 -77.476196 -51.912300 -4.405080 5.955430 -16.950500 17.161400 -22.299000 -0.713275 5.323002 2.663365 27.375801 2.365760 -54.284599 52.829102 -27.256701 33.837399 34.070202 -2.376750 -47.187500 -11.855352 -4.042481 15.149256 18.813715 -3.001374 -12.671302 -10.816054 6.605743 4.862295 -19.155720 -9.409212 -20.778372 37.440498 2.011717 -7.178843 -17.303873 -6.123923 -3.743333 
-0.713389 38.919239 -1.579285 0.313577 6.060770 3.991918 10.169320 -2.521197 -1.765638 4.358280 -1.080513 -0.756702 4.175490 -5.591650 2.800830 -26.574499 2.062390 -0.967037 5.109724 -9.708492 -4.125508 -18.922600 -8.255580 -75.788399 -47.878201 -2.258320 6.675270 -16.790501 18.099600 -22.220800 -1.620739 -0.404284 2.628520 23.219398 -4.088900 -44.844601 43.115799 -28.857100 28.486401 31.971800 -3.780220 -46.776600 -11.723637 -3.857753 15.771737 17.908110 -3.330802 -10.226752 -9.526454 3.639210 3.355909 -18.866375 -12.000504 -28.881895 38.868187 1.540770 -11.138341 -18.494904 -7.427272 -7.283596 
-1.355558 38.945709 -1.829132 0.881013 6.541330 3.464882 10.621030 -1.979733 -1.454523 4.551870 -0.848457 -0.623367 4.396740 -6.898510 2.674980 -27.368000 2.321000 -0.715363 5.050643 -9.737195 -4.537454 -15.285103 -8.308130 -73.997299 -43.893200 -0.785921 6.663870 -15.505800 18.752300 -21.833000 -1.654081 -4.152754 2.700580 19.106300 -6.394700 -38.686100 35.042301 -29.686001 24.526600 31.622101 -3.287060 -45.978901 -12.387328 -3.311279 18.834517 17.339935 -3.128855 -9.734551 -8.421247 2.057069 1.130342 -17.919359 -12.595718 -36.723900 36.267696 0.693035 -11.322241 -19.379253 -10.004513 -8.944283 
-2.398628 38.818752 -2.185533 1.113580 7.511780 0.377540 10.968790 -2.867200 -1.026844 4.700910 -1.228800 -0.440076 4.568130 -7.891180 3.771130 -25.942499 2.687740 0.181630 6.143668 -9.309994 -5.319335 -12.548901 -7.944620 -73.672501 -40.798000 0.297807 7.399410 -14.797000 18.375401 -21.290800 -0.448220 -5.468176 2.990857 16.203598 -2.080300 -41.076801 31.309601 -31.693300 23.959200 32.980301 -2.186670 -45.415699 -13.337836 -2.832226 21.507814 17.810978 -2.846098 -9.931167 -8.294724 4.829747 -0.386716 -18.358961 -11.239212 -37.940964 33.549038 0.526252 -10.082547 -19.353447 -12.820221 -8.701275 
-3.744659 38.678818 -2.778601 0.298428 7.998640 -4.718693 11.912809 -4.001039 -0.732697 5.105490 -1.714731 -0.314013 4.795690 -9.391410 5.464200 -24.213100 2.688940 2.100260 7.471535 -9.093187 -6.272209 -11.076000 -5.837250 -74.089798 -38.621101 0.921006 6.856810 -14.030500 17.632401 -20.685400 1.666369 -5.333899 4.193707 13.873699 7.486040 -49.201801 32.410500 -34.773102 25.562000 34.046299 -1.697890 -45.309898 -14.953935 -0.627846 21.021580 21.520020 -3.051535 -6.532739 -7.690023 7.237910 -1.493955 -18.320116 -8.124738 -31.972502 31.515368 1.502111 -8.711301 -19.791969 -13.745752 -9.967888 
-5.247637 38.687016 -3.669209 -2.073860 7.559880 -11.132605 14.036540 -5.439896 -0.631331 6.015660 -2.331384 -0.270571 5.233110 -10.059300 8.029860 -23.471500 1.311140 4.731340 8.324795 -8.535049 -6.452307 -11.555801 -2.610770 -75.681396 -37.337299 1.399300 5.202230 -11.969900 17.275999 -19.959299 3.502323 -3.541901 5.090714 10.667099 19.161200 -56.180199 36.302101 -37.684601 26.914101 34.819302 -1.549670 -45.421700 -20.379068 3.905096 20.673225 34.615593 -1.111425 -2.792976 -3.263461 6.861704 -0.706117 -15.581080 -4.448579 -25.285889 28.628536 2.733357 -7.556209 -20.091930 -11.082285 -12.330319 
-6.507198 38.407532 -4.568640 -5.188700 6.125820 -19.173094 16.730560 -6.660850 -0.055597 7.170240 -2.854650 -0.023827 5.501130 -10.515500 11.374100 -22.759001 -1.443050 7.403000 9.694806 -8.347454 -6.309886 -13.789497 0.004293 -77.468002 -36.940102 2.319360 4.066880 -10.728300 17.171801 -19.475000 5.643601 -1.856178 5.684579 5.306700 30.079300 -62.465401 39.850498 -39.345501 29.489100 35.997501 -1.065350 -45.430901 -28.728540 5.907149 18.280029 51.512486 3.981328 -3.657266 0.216126 8.445902 2.824076 -12.965029 -1.248324 -20.605093 28.155119 2.727479 -4.717743 -20.913473 -9.605684 -14.102761 
-7.580104 37.979591 -4.997303 -7.375720 4.030850 -29.384495 17.669260 -7.988190 1.449224 7.572540 -3.423510 0.621096 6.150300 -12.137900 15.753400 -21.357599 -3.834630 10.155400 12.909411 -9.182970 -5.949971 -16.062401 1.719040 -78.373901 -36.007198 2.659360 3.990780 -11.342300 16.545601 -19.236900 8.624098 -2.488174 8.471558 2.326799 42.884201 -72.544502 46.115799 -39.471401 38.054798 37.382500 1.981760 -44.417999 -35.019638 3.486576 15.025778 61.192478 6.592021 -10.083615 -2.373211 10.594968 4.712969 -11.174768 1.456133 -16.102743 29.920135 2.289891 -1.199114 -22.064842 -8.326033 -14.655414 
-8.707697 37.503021 -4.953185 -8.291070 1.636150 -39.947292 17.374979 -8.429049 3.155831 7.446420 -3.612450 1.352499 6.956340 -15.740500 19.404200 -20.774000 -5.228100 12.997300 16.472555 -11.750109 -5.813995 -17.569401 4.543950 -77.707497 -34.865700 2.431370 2.988110 -11.335200 17.113899 -19.269400 12.397874 -4.588591 13.288815 -1.190201 55.821800 -86.499298 54.686501 -37.165199 48.120701 38.977200 6.056640 -43.267799 -39.321667 0.643225 15.331738 62.984501 4.633578 -12.828292 -5.446774 10.201121 2.200153 -9.554123 3.251079 -13.912034 32.856983 1.429235 3.605735 -23.556553 -6.066555 -14.654372 
-9.991036 36.874115 -4.725006 -8.494700 -0.595607 -48.870392 17.721340 -8.292900 4.172672 7.594861 -3.554100 1.788288 6.760530 -19.530399 21.727400 -21.848600 -6.772380 15.292500 18.858057 -14.537928 -6.593443 -19.376099 7.744640 -77.095398 -34.266102 2.966300 0.844506 -9.747410 18.292200 -19.079700 15.815134 -7.166016 17.293430 -6.099310 65.351097 -99.684601 62.308201 -32.867500 54.245499 39.641300 8.285340 -43.104900 -41.914970 -1.145221 18.767237 58.898533 -1.605615 -8.962665 -6.526991 8.788927 -1.103725 -9.126907 4.374236 -14.768723 38.663376 -0.764078 9.546662 -25.205294 -4.745094 -15.114761 
-11.604675 36.000282 -4.398762 -7.985110 -2.407190 -54.320881 18.033751 -8.288210 4.620014 7.728751 -3.552090 1.980006 7.507850 -20.772900 23.075100 -23.290100 -9.344920 16.448999 19.307014 -15.350224 -6.693655 -21.506500 9.141540 -78.391403 -34.784401 3.383360 -0.818107 -7.755370 20.222200 -19.076099 17.289888 -7.164513 18.564850 -10.695800 70.445396 -107.003998 66.960197 -29.128401 56.362801 39.818699 8.882800 -43.278900 -41.930717 -3.506574 23.315699 49.838478 -7.256721 -5.434763 -7.840065 8.213784 -2.860451 -10.018765 5.458740 -18.160660 47.368740 -3.302376 12.197762 -25.964163 -3.273400 -16.868475 
-13.764495 34.907070 -3.996904 -6.877840 -4.088630 -57.315186 17.377220 -7.980560 4.995333 7.447381 -3.420240 2.140857 10.073000 -20.762300 23.792700 -23.830500 -11.994100 17.357201 19.355484 -14.926291 -5.504421 -22.856499 8.961340 -79.825897 -36.388199 2.668670 -2.052020 -6.238590 21.619499 -19.140900 17.725937 -5.739880 19.693384 -14.696232 73.757500 -111.864998 70.097702 -26.474199 57.809299 40.391602 9.102470 -43.381500 -39.751957 -5.987157 25.306046 40.378185 -8.719313 -3.964422 -9.458470 8.119719 -3.329680 -11.193214 5.908268 -24.306450 58.110847 -5.498220 11.243870 -23.395414 -0.027042 -20.409214 
-16.291124 33.775928 -3.521669 -6.113530 -6.033840 -60.678989 16.869160 -7.363930 5.539499 7.229640 -3.155970 2.374071 12.689900 -22.673700 24.138100 -25.090200 -13.802300 18.656700 20.110914 -16.045418 -5.007743 -22.762901 8.674920 -80.401901 -38.660702 2.227880 -2.691830 -5.780670 21.653700 -19.155199 18.364607 -6.460684 21.262556 -16.782040 78.610497 -118.083000 74.386497 -22.845301 58.826599 40.216999 7.988760 -44.537300 -37.692410 -5.771881 25.606922 38.248409 -6.668233 -3.655831 -10.810775 8.850201 5.428015 -14.372289 2.706659 -33.708084 73.600555 -9.130068 7.819167 -10.996820 3.083677 -24.081387 
-18.471516 32.539421 -3.037050 -6.573530 -8.612300 -63.396717 18.727381 -6.357862 5.428899 8.026021 -2.724798 2.326671 12.818200 -26.339899 23.599501 -27.178101 -15.423500 20.118401 19.949047 -19.223648 -6.173645 -22.693199 8.552570 -82.475899 -42.201900 1.834840 -2.727290 -4.451370 21.108000 -18.738001 18.985373 -9.519810 22.357935 -23.276501 82.589798 -129.332993 78.840797 -17.985901 58.799801 38.753899 6.062730 -46.333199 -38.834019 -3.946717 27.203335 47.421398 -3.165390 -5.794711 -11.834434 10.175462 20.993305 -23.337172 -5.942699 -43.836281 92.156960 -15.536901 0.725820 14.498244 -0.739357 -16.239553 
